<svg xmlns="http://www.w3.org/2000/svg" width="218" height="17" viewBox="0 0 218 17"><path d="M27.01 0c-4.7 0-8.488 3.573-8.488 8.5S22.31 17 27.01 17c4.7 0 8.512-3.573 8.512-8.5S31.71 0 27.01 0m4.42 8.5c0 2.732-1.754 4.623-4.42 4.623-2.642 0-4.396-1.891-4.396-4.623 0-2.755 1.754-4.624 4.396-4.624 2.666 0 4.42 1.869 4.42 4.624M92.854 0c-4.615 0-8.333 3.573-8.333 8.5S88.24 17 92.855 17c1.583 0 3.482-.659 4.424-1.686l3.243 1.36V7.425h-6.946v3.152h3.663v.024c-.46 1.214-1.584 2.568-4.155 2.568-2.64 0-4.545-1.797-4.545-4.67 0-2.685 1.653-4.624 4.316-4.624 1.129 0 2.33.468 3.114 1.235.884-.224 3.098-.813 4.015-1.058A8.229 8.229 0 0092.854 0m70 0c-4.614 0-8.332 3.573-8.332 8.5s3.718 8.5 8.332 8.5c1.584 0 3.483-.659 4.424-1.686l3.244 1.36V7.425h-6.946v3.152h3.663v.024c-.46 1.214-1.584 2.568-4.155 2.568-2.64 0-4.545-1.797-4.545-4.67 0-2.685 1.653-4.624 4.315-4.624 1.263 0 2.618.584 3.375 1.518l3.925-1.05C168.708 1.68 165.976 0 162.854 0M129.01 0c-4.7 0-8.488 3.573-8.488 8.5s3.788 8.5 8.488 8.5c4.7 0 8.512-3.573 8.512-8.5S133.71 0 129.01 0m4.42 8.5c0 2.732-1.754 4.623-4.42 4.623-2.642 0-4.396-1.891-4.396-4.623 0-2.755 1.754-4.624 4.396-4.624 2.666 0 4.42 1.869 4.42 4.624M211.147 0c-3.472 0-5.986 2.312-5.986 4.857 0 2.873 2.217 3.947 4.136 4.694 2.285.887 4.158 1.214 4.158 2.522 0 .794-.64 1.448-2.01 1.448-1.691 0-2.833-1.238-3.245-2.476l-3.678 1.004c1.05 3.06 3.427 4.951 6.762 4.951 3.725 0 6.238-2.125 6.238-5.114 0-2.802-2.49-4.18-4.866-5.067-1.943-.724-3.542-1.121-3.542-2.195 0-.654.663-1.238 1.805-1.238s2.376.677 2.765 2.125l3.7-1.028C216.632 1.915 214.21 0 211.148 0M55.522 0v3.588h4.619V16h3.696V3.588h4.685V0zm28 16L77.29 0h-3.537l-6.231 16h4.028l.89-2.514h6.163l.89 2.514h4.029zm-6.12-5.874h-3.76l1.112-3.109c.334-.914.734-2.354.757-2.354h.022c.022 0 .423 1.44.757 2.354l1.112 3.109zm75.46-4.64c0-3.292-2.409-5.486-6.408-5.486h-5.932v16h3.818v-5.212h1.955L149.249 16h4.273l-3.523-5.897c1.841-.869 2.864-2.469 2.864-4.617m-3.978 0c0 .868-.545 1.897-1.909 1.897h-2.636V3.588h2.636c1.364 0 1.91 1.03 1.91 1.898M173.522 0v16h12v-3.588h-8.086V9.578h6.222V6.217h-6.222V3.589h7.946V0zm-121 16V0h-4.013v3.657c0 1.116.007 2.22.014 3.158L41.415.013l-.014.014V0h-3.879v16h4.012v-3.543c0-3.497-.047-5.966-.023-5.966h.006l-.021-1.147 7.079 6.774.068 3.745.105.137h3.774zm-36 0V0h-3.617v.014L12.892 0v.01l-.01-.01-4.364 4.359L4.153 0l-.005.005V0l-.01.01V0H.523v16H4.3v-3.908c0-3.795-.092-6.522-.092-6.522l-.002-.264 4.3 4.294v.026l.013-.013.013.013V9.6l4.309-4.303c-.003.17-.004.273-.003.273 0 0-.07 2.073-.088 5.118v4.296h-.004V16h3.777zm102 0V0h-3.617v.014L114.892 0v.01l-.01-.01-4.364 4.359L106.153 0l-.005.005V0l-.01.01V0h-3.616v16h3.777v-3.908c0-3.795-.092-6.522-.092-6.522l-.002-.264 4.3 4.294v.026l.013-.013.013.013V9.6l4.308-4.303-.002.273s-.07 2.073-.088 5.118v4.296h-.004V16h3.777zm84 0V0h-4.013v3.657c0 1.116.007 2.22.014 3.158L191.416.013l-.015.014V0h-3.879v16h4.013v-3.543c0-3.497-.048-5.966-.025-5.966h.007l-.021-1.147 7.156 6.861-.01 3.658.106.137h3.774z" fill="#DADAD6" fill-rule="evenodd"/></svg>