<svg xmlns="http://www.w3.org/2000/svg" width="218" height="17" viewBox="0 0 218 17">
  <g fill="#DADAD6" fill-rule="evenodd">
    <path d="M27.0097518 0C22.309722 0 18.5217391 3.57278876 18.5217391 8.50016861 18.5217391 13.4272112 22.309722 17 27.0097518 17 31.7097816 17 35.5217391 13.4272112 35.5217391 8.50016861 35.5217391 3.57278876 31.7097816 0 27.0097518 0M31.4291778 8.50016861C31.4291778 11.2319441 29.6756571 13.1233809 27.0097518 13.1233809 24.3678212 13.1233809 22.6136251 11.2319441 22.6136251 8.50016861 22.6136251 5.74478805 24.3678212 3.87628191 27.0097518 3.87628191 29.6756571 3.87628191 31.4291778 5.74478805 31.4291778 8.50016861M92.8545614 0C88.2404645 0 84.5217391 3.57278876 84.5217391 8.50016861 84.5217391 13.4272112 88.2404645 17 92.8545614 17 94.4384507 17 96.3372614 16.3414199 97.2787109 15.313927L100.521739 16.673239 100.521739 7.42580287 93.5758973 7.42580287 93.5758973 10.5784222 97.2392629 10.5784222 97.2392629 10.60169C96.779809 11.8159998 95.6550421 13.1702537 93.0839568 13.1702537 90.4442519 13.1702537 88.5388112 11.3725626 88.5388112 8.50016861 88.5388112 5.81459147 90.1916517 3.87628191 92.8545614 3.87628191 93.9839693 3.87628191 95.1849803 4.34399857 95.9686376 5.1111618 96.8534012 4.88657688 99.0674649 4.29780017 99.9843836 4.05331958 98.5009377 1.56130363 95.8602383 0 92.8545614 0M162.854389 0C158.240387 0 154.521739 3.57278876 154.521739 8.50016861 154.521739 13.4272112 158.240387 17 162.854389 17 164.438245 17 166.337017 16.3414199 167.278447 15.313927L170.521739 16.673239 170.521739 7.42580287 163.57571 7.42580287 163.57571 10.5784222 167.238999 10.5784222 167.238999 10.60169C166.779887 11.8159998 165.654811 13.1702537 163.084111 13.1702537 160.444129 13.1702537 158.538728 11.3725626 158.538728 8.50016861 158.538728 5.81459147 160.191534 3.87628191 162.854389 3.87628191 164.117363 3.87628191 165.471829 4.46033761 166.228951 5.39408486L170.154117 4.34366136C168.707829 1.68135203 165.976356 0 162.854389 0M129.01009 0C124.309722 0 120.521739 3.57278876 120.521739 8.50016861 120.521739 13.4272112 124.309722 17 129.01009 17 133.710119 17 137.521739 13.4272112 137.521739 8.50016861 137.521739 3.57278876 133.710119 0 129.01009 0M133.429515 8.50016861C133.429515 11.2319441 131.675995 13.1233809 129.01009 13.1233809 126.367821 13.1233809 124.613625 11.2319441 124.613625 8.50016861 124.613625 5.74478805 126.367821 3.87628191 129.01009 3.87628191 131.675995 3.87628191 133.429515 5.74478805 133.429515 8.50016861M211.147443 0C207.674574 0 205.161478 2.31160613 205.161478 4.85690199 205.161478 7.72963323 207.377635 8.80366175 209.296852 9.55059211 211.581635 10.4384782 213.454991 10.7652391 213.454991 12.0726202 213.454991 12.8667606 212.815582 13.5209569 211.444383 13.5209569 209.753809 13.5209569 208.611582 12.2830421 208.199827 11.0454645L204.521739 12.0493523C205.572574 15.1085633 207.948748 17 211.284365 17 215.008643 17 217.521739 14.8748735 217.521739 11.8861405 217.521739 9.08388709 215.031409 7.70636542 212.655565 6.81881658 210.713252 6.09481681 209.11374 5.69757801 209.11374 4.6238867 209.11374 3.96969036 209.776904 3.38597187 210.91913 3.38597187 212.061356 3.38597187 213.295304 4.06343602 213.683634 5.51109833L217.384817 4.4832682C216.630921 1.91470454 214.208887 0 211.147443 0"/>
    <polygon points="55.522 0 55.522 3.588 60.141 3.588 60.141 16 63.837 16 63.837 3.588 68.522 3.588 68.522 0"/>
    <path d="M83.5217391 16L77.2904477 0 73.7527092 0 67.5217391 16 71.5495359 16 72.4396745 13.4858793 78.6034825 13.4858793 79.4939424 16 83.5217391 16zM77.4022774 10.1257968L73.6415222 10.1257968 74.7540348 7.01722537C75.0875957 6.10326973 75.4883188 4.66285714 75.5108132 4.66285714L75.5329864 4.66285714C75.5551595 4.66285714 75.9555612 6.10326973 76.2897648 7.01722537L77.4022774 10.1257968zM152.86273 5.48571429C152.86273 2.19428571 150.453475 0 146.453803 0L140.521739 0 140.521739 16 144.339921 16 144.339921 10.7882414 146.29463 10.7882414 149.24934 16 153.521739 16 149.99893 10.1026921C151.840085 9.23428571 152.86273 7.63412068 152.86273 5.48571429M148.885375 5.48571429C148.885375 6.35412068 148.339921 7.38293966 146.976285 7.38293966L144.339921 7.38293966 144.339921 3.58848891 146.976285 3.58848891C148.339921 3.58848891 148.885375 4.61730789 148.885375 5.48571429"/>
    <polygon points="173.522 0 173.522 16 185.522 16 185.522 12.412 177.436 12.412 177.436 9.578 183.658 9.578 183.658 6.217 177.436 6.217 177.436 3.589 185.382 3.589 185.382 0"/>
    <path d="M52.5217391 16L52.5217391 0 48.5090003 0 48.5090003 3.65747292C48.5090003 4.77276947 48.5158986 5.87651367 48.5231418 6.81456421L41.4154824.0128726147 41.400996.0267354306 41.400651 0 41.2957969 0 37.5217391 0 37.5217391 16 41.534478 16 41.534478 12.4573904C41.534478 8.96 41.4865348 6.49142857 41.5106789 6.49142857L41.5165424 6.49142857 41.4958475 5.34378546 48.5745341 12.1177514 48.6428272 15.8630222 48.7480262 16 52.5217391 16zM16.5217391 16L16.5217391 0 12.9053279 0C12.9053279 0 12.9049974.0122124807 12.9049974.0141928829L12.892437 0 12.892437.00990201135 12.8825209 0 8.51777268 4.35886539 4.15269397 0 4.14806645.00462093863 4.14806645 0 4.13881139.0108922125 4.13881139 0 .52173913 0 .52173913 16 4.29879156 16 4.29879156 12.0916761C4.29879156 8.29722537 4.20723266 5.56955132 4.20723266 5.56955132 4.20789374 5.56955132 4.20624105 5.46987107 4.20458836 5.30615781L8.50422064 9.59966993 8.50422064 9.6260753 8.51777268 9.61254255 8.53066364 9.6260753 8.53066364 9.59966993 12.839551 5.297246C12.8372372 5.46690046 12.8362456 5.56955132 12.8369067 5.56955132 12.8369067 5.56955132 12.7668327 7.64270242 12.7489837 10.6875709L12.7493142 14.9837236 12.7450172 14.9837236 12.7450172 16 16.5217391 16zM118.521739 16L118.521739 0 114.905328 0C114.905328 0 114.904997.0122124807 114.904997.0141928829L114.892437 0 114.892437.00990201135 114.882521 0 110.517773 4.35886539 106.152694 0 106.148066.00462093863 106.148066 0 106.138811.0108922125 106.138811 0 102.521739 0 102.521739 16 106.298792 16 106.298792 12.0916761C106.298792 8.29722537 106.207233 5.56955132 106.207233 5.56955132 106.207894 5.56955132 106.206572 5.46987107 106.204588 5.30615781L110.504221 9.59966993 110.504221 9.6260753 110.517773 9.61287261 110.530664 9.6260753 110.530664 9.59966993 114.83922 5.297246C114.837237 5.46690046 114.836576 5.56955132 114.836576 5.56955132 114.836576 5.56955132 114.767163 7.64270242 114.748984 10.6875709L114.748984 14.9837236 114.745017 14.9837236 114.745017 16 118.521739 16zM202.521739 16L202.521739 0 198.508908 0 198.508908 3.65714286C198.508908 4.77276947 198.516151 5.8761836 198.523395 6.81456421L191.415917.0128726147 191.401085.0267354306 191.40074 0 191.295884 0 187.521739 0 187.521739 16 191.53457 16 191.53457 12.4570603C191.53457 8.96 191.486626 6.49142857 191.510426 6.49142857L191.516634 6.49142857 191.495939 5.34378546 198.651706 12.2052192 198.642738 15.8630222 198.748284 16 202.521739 16z"/>
  </g>
</svg>
